<svg width="50" height="50" viewBox="0 0 50 50" fill="none" xmlns="http://www.w3.org/2000/svg">
<path d="M33.3563 42.7094C33.6289 42.4303 33.7815 42.0557 33.7815 41.6656C33.7815 41.2756 33.6289 40.9009 33.3563 40.6219L18.1282 25L33.3563 9.38126C33.6289 9.10221 33.7815 8.7276 33.7815 8.33752C33.7815 7.94743 33.6289 7.57282 33.3563 7.29376C33.2238 7.15769 33.0654 7.04954 32.8905 6.97569C32.7155 6.90184 32.5275 6.8638 32.3376 6.8638C32.1477 6.8638 31.9597 6.90184 31.7847 6.97569C31.6097 7.04954 31.4513 7.15769 31.3188 7.29376L15.1251 23.9094C14.8407 24.2012 14.6815 24.5925 14.6815 25C14.6815 25.4075 14.8407 25.7988 15.1251 26.0906L31.3188 42.7063C31.4513 42.8423 31.6097 42.9505 31.7847 43.0243C31.9597 43.0982 32.1477 43.1362 32.3376 43.1362C32.5275 43.1362 32.7155 43.0982 32.8905 43.0243C33.0654 42.9505 33.2238 42.8423 33.3563 42.7063L33.3563 42.7094Z" fill="black"/>
</svg>
