<svg width="38" height="37" viewBox="0 0 38 37" fill="none" xmlns="http://www.w3.org/2000/svg">
<path d="M35.3922 9.06122H27.5686V8.68367C27.5686 6.38062 26.6659 4.17189 25.0589 2.54339C23.452 0.914884 21.2725 0 19 0C16.7275 0 14.548 0.914884 12.9411 2.54339C11.3341 4.17189 10.4314 6.38062 10.4314 8.68367V9.06122H2.60784C1.9162 9.06122 1.25289 9.33967 0.76382 9.8353C0.274754 10.3309 0 11.0032 0 11.7041V34.3571C0 35.0581 0.274754 35.7303 0.76382 36.2259C1.25289 36.7216 1.9162 37 2.60784 37H35.3922C36.0838 37 36.7471 36.7216 37.2362 36.2259C37.7252 35.7303 38 35.0581 38 34.3571V11.7041C38 11.0032 37.7252 10.3309 37.2362 9.8353C36.7471 9.33967 36.0838 9.06122 35.3922 9.06122ZM12.6667 8.68367C12.6667 6.98142 13.3339 5.34888 14.5217 4.1452C15.7094 2.94153 17.3203 2.26531 19 2.26531C20.6797 2.26531 22.2906 2.94153 23.4783 4.1452C24.6661 5.34888 25.3333 6.98142 25.3333 8.68367V9.06122H12.6667V8.68367ZM35.7647 34.3571C35.7647 34.4573 35.7255 34.5533 35.6556 34.6241C35.5857 34.6949 35.491 34.7347 35.3922 34.7347H2.60784C2.50904 34.7347 2.41428 34.6949 2.34441 34.6241C2.27454 34.5533 2.23529 34.4573 2.23529 34.3571V11.7041C2.23529 11.6039 2.27454 11.5079 2.34441 11.4371C2.41428 11.3663 2.50904 11.3265 2.60784 11.3265H10.4314V14.7245C10.4314 15.0249 10.5491 15.313 10.7587 15.5254C10.9683 15.7378 11.2526 15.8571 11.549 15.8571C11.8454 15.8571 12.1297 15.7378 12.3393 15.5254C12.5489 15.313 12.6667 15.0249 12.6667 14.7245V11.3265H25.3333V14.7245C25.3333 15.0249 25.4511 15.313 25.6607 15.5254C25.8703 15.7378 26.1546 15.8571 26.451 15.8571C26.7474 15.8571 27.0317 15.7378 27.2413 15.5254C27.4509 15.313 27.5686 15.0249 27.5686 14.7245V11.3265H35.3922C35.491 11.3265 35.5857 11.3663 35.6556 11.4371C35.7255 11.5079 35.7647 11.6039 35.7647 11.7041V34.3571Z" fill="black"/>
</svg>
