<svg width="34" height="34" viewBox="0 0 34 34" fill="none" xmlns="http://www.w3.org/2000/svg">
<path d="M28.6639 12.3723C28.6639 8.97227 25.8778 6.18616 22.4778 6.18616C20.1167 6.18616 18.0861 7.50838 17.0472 9.44449C16.0083 7.50838 13.9305 6.18616 11.6167 6.18616C8.21665 6.18616 5.43054 8.97227 5.43054 12.3723C5.43054 13.8362 5.94999 15.2056 6.79999 16.2445L17.0944 28.9945L27.3889 16.2445C28.1444 15.2056 28.6639 13.8834 28.6639 12.3723Z" fill="#EA5A47"/>
<path d="M28.6639 12.3723C28.6639 8.97227 25.8778 6.18616 22.4778 6.18616C20.1167 6.18616 18.0861 7.50838 17.0472 9.44449C16.0083 7.50838 13.9305 6.18616 11.6167 6.18616C8.21665 6.18616 5.43054 8.97227 5.43054 12.3723C5.43054 13.8362 5.94999 15.2056 6.79999 16.2445L17.0944 28.9945L27.3889 16.2445C28.1444 15.2056 28.6639 13.8834 28.6639 12.3723Z" stroke="black" stroke-width="2" stroke-linecap="round" stroke-linejoin="round"/>
</svg>
