<svg width="31" height="31" viewBox="0 0 31 31" fill="none" xmlns="http://www.w3.org/2000/svg">
<path d="M26.35 1.55005H4.65005C2.94505 1.55005 1.55005 2.94505 1.55005 4.65005V26.35C1.55005 28.0566 2.94505 29.45 4.65005 29.45H26.35C28.055 29.45 29.45 28.0566 29.45 26.35V4.65005C29.45 2.94505 28.055 1.55005 26.35 1.55005ZM15.4752 24.0607C17.752 24.0603 19.9353 23.1556 21.5451 21.5455C23.1548 19.9355 24.0591 17.752 24.0591 15.4752C24.0591 14.9513 23.9925 14.446 23.8995 13.95H26.35V25.1348C26.35 25.2757 26.3222 25.4151 26.2682 25.5452C26.2142 25.6753 26.135 25.7934 26.0352 25.8927C25.9354 25.9921 25.8169 26.0708 25.6866 26.1243C25.5563 26.1777 25.4167 26.205 25.2759 26.2043H5.7242C5.58336 26.205 5.44379 26.1777 5.31349 26.1243C5.1832 26.0708 5.06475 25.9921 4.96494 25.8927C4.86513 25.7934 4.78594 25.6753 4.7319 25.5452C4.67786 25.4151 4.65005 25.2757 4.65005 25.1348V13.95H7.051C6.95645 14.446 6.8898 14.9513 6.8898 15.4752C6.89021 17.7521 7.79488 19.9356 9.40487 21.5456C11.0149 23.1556 13.1984 24.0603 15.4752 24.0607ZM10.1107 15.4752C10.1107 14.7708 10.2495 14.0732 10.5191 13.4223C10.7886 12.7715 11.1838 12.1801 11.6819 11.6819C12.1801 11.1838 12.7715 10.7886 13.4223 10.5191C14.0732 10.2495 14.7708 10.1107 15.4752 10.1107C16.1797 10.1107 16.8773 10.2495 17.5282 10.5191C18.179 10.7886 18.7704 11.1838 19.2686 11.6819C19.7667 12.1801 20.1619 12.7715 20.4314 13.4223C20.701 14.0732 20.8398 14.7708 20.8398 15.4752C20.8398 16.898 20.2746 18.2625 19.2686 19.2686C18.2625 20.2746 16.898 20.8398 15.4752 20.8398C14.0525 20.8398 12.688 20.2746 11.6819 19.2686C10.6759 18.2625 10.1107 16.898 10.1107 15.4752ZM25.2759 9.30005H22.7726C22.4884 9.29923 22.2161 9.18596 22.0151 8.98499C21.8141 8.78401 21.7009 8.51167 21.7 8.22745V5.7211C21.7 5.129 22.1805 4.65005 22.7711 4.65005H25.2743C25.8695 4.65005 26.35 5.129 26.35 5.7211V8.2259C26.35 8.81645 25.8695 9.30005 25.2759 9.30005Z" fill="black"/>
</svg>
