<svg width="29" height="36" viewBox="0 0 29 36" fill="none" xmlns="http://www.w3.org/2000/svg">
<path d="M18.4723 24.9911V29.2299C18.4723 30.1272 18.2179 30.5759 17.7092 30.5759C17.4091 30.5759 17.1156 30.4286 16.8286 30.1339V24.0871C17.1156 23.7924 17.4091 23.6451 17.7092 23.6451C18.2179 23.6451 18.4723 24.0937 18.4723 24.9911ZM25.0864 25.0112V25.9353H23.3252V25.0112C23.3252 24.1004 23.6188 23.6451 24.2058 23.6451C24.7928 23.6451 25.0864 24.1004 25.0864 25.0112ZM6.18354 20.6317H8.27733V18.7433H2.17206V20.6317H4.22672V32.0625H6.18354V20.6317ZM11.8192 32.0625H13.5607V22.1384H11.8192V29.7321C11.4278 30.2946 11.056 30.5759 10.7038 30.5759C10.469 30.5759 10.332 30.4353 10.2928 30.154C10.2798 30.1138 10.2733 29.8795 10.2733 29.4509V22.1384H8.53171V29.9933C8.53171 30.6496 8.5839 31.1384 8.68826 31.4598C8.8448 31.9554 9.22312 32.2031 9.82321 32.2031C10.4494 32.2031 11.1147 31.7946 11.8192 30.9777V32.0625ZM20.2139 29.0893V25.1317C20.2139 24.154 20.1552 23.4911 20.0378 23.1429C19.816 22.3929 19.3529 22.0179 18.6484 22.0179C17.9962 22.0179 17.3896 22.3795 16.8286 23.1027V18.7433H15.087V32.0625H16.8286V31.0982C17.4157 31.8348 18.0223 32.2031 18.6484 32.2031C19.3529 32.2031 19.816 31.8348 20.0378 31.0982C20.1552 30.7366 20.2139 30.067 20.2139 29.0893ZM26.8279 28.8884V28.6272H25.0472C25.0472 29.3103 25.0342 29.7187 25.0081 29.8527C24.9168 30.3348 24.6559 30.5759 24.2254 30.5759C23.6253 30.5759 23.3252 30.1138 23.3252 29.1897V27.442H26.8279V25.3728C26.8279 24.3147 26.6518 23.5379 26.2996 23.0424C25.7908 22.3594 25.0994 22.0179 24.2254 22.0179C23.3383 22.0179 22.6404 22.3594 22.1316 23.0424C21.7663 23.5379 21.5837 24.3147 21.5837 25.3728V28.8482C21.5837 29.9062 21.7728 30.683 22.1511 31.1786C22.6599 31.8616 23.3644 32.2031 24.2645 32.2031C25.2038 32.2031 25.9082 31.8482 26.3779 31.1384C26.6127 30.7768 26.7497 30.4152 26.7888 30.0536C26.8149 29.933 26.8279 29.5446 26.8279 28.8884ZM14.9305 10.5469V6.32812C14.9305 5.40402 14.65 4.94196 14.0891 4.94196C13.5281 4.94196 13.2476 5.40402 13.2476 6.32812V10.5469C13.2476 11.4844 13.5281 11.9531 14.0891 11.9531C14.65 11.9531 14.9305 11.4844 14.9305 10.5469ZM29 25.6339C29 28.7679 28.8304 31.1116 28.4912 32.6652C28.3086 33.4554 27.9303 34.1183 27.3563 34.654C26.7823 35.1897 26.117 35.4978 25.3603 35.5781C22.96 35.8594 19.3399 36 14.5 36C9.66014 36 6.04004 35.8594 3.63968 35.5781C2.88304 35.4978 2.21446 35.1897 1.63394 34.654C1.05342 34.1183 0.678363 33.4554 0.508772 32.6652C0.169591 31.1652 0 28.8214 0 25.6339C0 22.5 0.169591 20.1562 0.508772 18.6027C0.691408 17.8125 1.06973 17.1496 1.64372 16.6138C2.21772 16.0781 2.88956 15.7634 3.65924 15.6696C6.04656 15.4018 9.66014 15.2679 14.5 15.2679C19.3399 15.2679 22.96 15.4018 25.3603 15.6696C26.117 15.7634 26.7855 16.0781 27.3661 16.6138C27.9466 17.1496 28.3216 17.8125 28.4912 18.6027C28.8304 20.1027 29 22.4464 29 25.6339ZM9.47099 0H11.4669L9.09919 8.01562V13.4598H7.14238V8.01562C6.95974 7.02455 6.56185 5.60491 5.94872 3.7567C5.46604 2.37723 5.04206 1.125 4.67679 0H6.75101L8.14035 5.28348L9.47099 0ZM16.7112 6.68973V10.2054C16.7112 11.2902 16.5286 12.0804 16.1633 12.5759C15.6676 13.2589 14.9762 13.6004 14.0891 13.6004C13.215 13.6004 12.5301 13.2589 12.0344 12.5759C11.6691 12.067 11.4865 11.2768 11.4865 10.2054V6.68973C11.4865 5.6183 11.6691 4.83482 12.0344 4.33929C12.5301 3.65625 13.215 3.31473 14.0891 3.31473C14.9762 3.31473 15.6676 3.65625 16.1633 4.33929C16.5286 4.83482 16.7112 5.6183 16.7112 6.68973ZM23.2665 3.43527V13.4598H21.4858V12.3549C20.7944 13.1853 20.1226 13.6004 19.4703 13.6004C18.8702 13.6004 18.4854 13.3527 18.3158 12.8571C18.2114 12.5357 18.1592 12.0335 18.1592 11.3504V3.43527H19.9399V10.808C19.9399 11.25 19.9465 11.4844 19.9595 11.5112C19.9987 11.8058 20.1356 11.9531 20.3704 11.9531C20.7227 11.9531 21.0945 11.6652 21.4858 11.0893V3.43527H23.2665Z" fill="black"/>
</svg>
